<svg width="112" height="24" viewBox="0 0 112 24" fill="none" xmlns="http://www.w3.org/2000/svg">
   <path d="M0.848 23V0.279999H10.256C11.2373 0.279999 12.1333 0.482665 12.944 0.887999C13.776 1.29333 14.4907 1.848 15.088 2.552C15.6853 3.23466 16.1547 4.00267 16.496 4.856C16.8373 5.688 17.008 6.54133 17.008 7.416C17.008 8.65333 16.7307 9.82667 16.176 10.936C15.6427 12.024 14.8853 12.9093 13.904 13.592C12.9227 14.2747 11.7707 14.616 10.448 14.616H3.088V23H0.848ZM3.088 12.632H10.352C11.248 12.632 12.0267 12.3867 12.688 11.896C13.3493 11.4053 13.8613 10.7653 14.224 9.976C14.5867 9.18667 14.768 8.33333 14.768 7.416C14.768 6.47733 14.5547 5.61333 14.128 4.824C13.7013 4.03467 13.136 3.416 12.432 2.968C11.7493 2.49867 10.992 2.264 10.16 2.264H3.088V12.632ZM34.4823 23.16C32.6902 23.16 31.1756 22.84 29.9383 22.2C28.7009 21.56 27.7196 20.7067 26.9942 19.64C26.2689 18.552 25.7356 17.3253 25.3942 15.96C25.0742 14.5947 24.9142 13.1867 24.9142 11.736V0.279999H27.1222V11.736C27.1222 12.9093 27.2396 14.0613 27.4742 15.192C27.7302 16.3227 28.1356 17.336 28.6902 18.232C29.2449 19.128 29.9916 19.8427 30.9303 20.376C31.8689 20.888 33.0422 21.144 34.4502 21.144C35.9009 21.144 37.0956 20.8773 38.0343 20.344C38.9943 19.7893 39.7409 19.064 40.2743 18.168C40.8289 17.272 41.2236 16.2693 41.4583 15.16C41.6929 14.0293 41.8103 12.888 41.8103 11.736V0.279999H44.0503V11.736C44.0503 13.2507 43.8796 14.7013 43.5382 16.088C43.1969 17.4747 42.6423 18.6907 41.8743 19.736C41.1276 20.7813 40.1462 21.6133 38.9303 22.232C37.7142 22.8507 36.2316 23.16 34.4823 23.16ZM77.1985 23V4.504L68.9745 18.872H67.5665L59.3105 4.504V23H57.0705V0.279999H59.3745L68.2385 15.832L77.1665 0.279999H79.4385V23H77.1985ZM100.333 0.279999H102.221L111.661 23H109.293L106.349 15.896H96.141L93.229 23H90.829L100.333 0.279999ZM105.837 14.136L101.261 2.904L96.621 14.136H105.837Z" fill="black" />
</svg>
   