<svg id="SvgjsSvg1001" width="288" height="288" xmlns="http://www.w3.org/2000/svg" version="1.1" xmlns:xlink="http://www.w3.org/1999/xlink" xmlns:svgjs="http://svgjs.com/svgjs">
    <defs id="SvgjsDefs1002"></defs>
    <g id="SvgjsG1008">
        <svg xmlns="http://www.w3.org/2000/svg" width="288" height="288" viewBox="0 0 58.794 49.38">
            <g transform="translate(-60.164 -145.296)" fill="#ffffff" class="color000 svgShape">
                <path d="m 79.237178,180.23379 c -0.73064,-0.25264 -1.72078,-0.73871 -2.2003,-1.08016 l -0.87186,-0.62082 0.57155,-0.60839 0.57155,-0.60838 1.47538,0.8097 c 2.7701,1.52025 5.97188,1.01244 8.06314,-1.27885 1.50005,-1.64353 1.92155,-2.75105 1.04698,-2.75105 -0.98036,0 -3.25255,-1.40903 -4.53503,-2.81226 -1.30006,-1.42248 -2.1315,-3.28561 -2.1315,-4.77639 0,-0.49924 -0.14157,-0.61344 -0.76048,-0.61344 -1.19727,0 -2.80183,-0.67226 -4.37051,-1.83111 -1.5888,-1.17371 -2.88531,-3.39998 -3.20951,-5.51107 l -0.17268,-1.12448 h 1.22901 c 1.90358,0 3.57345,0.52075 5.21236,1.62548 2.38404,1.60701 3.35383,3.29285 3.70112,6.43387 0.37589,3.39972 -0.38523,3.05315 6.70507,3.05315 7.09029,0 6.32918,0.34657 6.70507,-3.05315 0.34728,-3.14102 1.31707,-4.82686 3.701112,-6.43387 1.63891,-1.10473 3.30878,-1.62548 5.21236,-1.62548 h 1.22901 l -0.17268,1.12448 c -0.3242,2.11109 -1.62072,4.33736 -3.20951,5.51107 -1.56868,1.15885 -3.17324,1.83111 -4.37051,1.83111 -0.618912,0 -0.760482,0.1142 -0.760482,0.61344 0,1.49078 -0.83144,3.35391 -2.1315,4.77639 -1.28248,1.40323 -3.55467,2.81226 -4.53503,2.81226 -0.87457,0 -0.45307,1.10752 1.04698,2.75105 2.09126,2.29129 5.29304,2.7991 8.063142,1.27885 l 1.47539,-0.8097 0.58032,0.61772 0.58031,0.61772 -1.05892,0.70076 c -3.752112,2.48303 -9.219722,1.6621 -11.576042,-1.73807 -0.39529,-0.5704 -0.74585,-1.03708 -0.77902,-1.03708 -0.0332,0 -0.38374,0.46668 -0.77903,1.03708 -1.89294,2.73152 -6.06946,3.92149 -9.54526,2.71962 z m 1.72533,-16.45511 c 0,-0.59579 -1.85911,-2.84597 -2.77301,-3.35631 -1.04137,-0.58153 -2.95819,-1.05645 -3.21746,-0.79718 -0.22039,0.22039 0.59493,1.57917 1.49568,2.49262 0.7555,0.76615 2.36501,1.70304 3.43645,2.00036 0.47756,0.13252 1.05834,-0.0538 1.05834,-0.33949 z m 20.008862,-0.37526 c 0.99385,-0.51172 2.11525,-1.58731 2.78272,-2.66904 0.70149,-1.13687 0.62389,-1.27939 -0.59086,-1.08514 -2.12503,0.3398 -3.6642,1.49968 -4.73234,3.56618 -0.598032,1.157 0.50062,1.2383 2.54048,0.188 z m -39.312523,-7.2839 c -0.962905,-1.35228 -1.403212,-2.73547 -1.478806,-4.64556 -0.06256,-1.5807 0.04087,-2.10241 0.70582,-3.56047 1.323709,-2.90251 1.621354,-3.04765 4.269684,-2.08202 2.961565,1.07984 5.129765,3.70453 5.590039,6.76697 l 0.169005,1.12448 h -0.929168 c -0.858208,0 -0.929169,-0.0613 -0.929169,-0.80225 0,-2.44434 -3.015682,-5.54775 -5.390927,-5.54775 -0.993271,0 -1.620531,1.53619 -1.620531,3.96875 0,1.67834 0.112852,2.18448 0.731746,3.28188 0.687877,1.21972 0.705246,1.32679 0.289722,1.78594 -0.593043,0.6553 -0.758608,0.62119 -1.407415,-0.28997 z m 54.397813,0.28997 c -0.41552,-0.45915 -0.39815,-0.56622 0.28973,-1.78594 0.61889,-1.0974 0.73174,-1.60354 0.73174,-3.28188 0,-2.43256 -0.62726,-3.96875 -1.62053,-3.96875 -2.37525,0 -5.39093,3.10341 -5.39093,5.54775 0,0.74098 -0.071,0.80225 -0.92917,0.80225 h -0.92916 l 0.169,-1.12448 c 0.46028,-3.06244 2.62848,-5.68713 5.59004,-6.76697 2.64833,-0.96563 2.94598,-0.82049 4.26969,2.08202 0.66495,1.45806 0.76837,1.97977 0.70581,3.56047 -0.0756,1.91009 -0.5159,3.29328 -1.4788,4.64556 -0.64881,0.91116 -0.81437,0.94527 -1.40742,0.28997 z" fill="#ffffff" class="color000 svgShape"></path>
            </g>
        </svg>
    </g>
</svg>